<svg id="Layer_1" data-name="Layer 1" xmlns="http://www.w3.org/2000/svg" xmlns:xlink="http://www.w3.org/1999/xlink" viewBox="0 0 643.46 176.68"><defs><style>.cls-1{fill:#0b318f;}.cls-2{fill:url(#PU_Blue_Gradient_1);}.cls-3{fill:url(#PU_Yellow_Gradient_2);}.cls-4{fill:url(#PU_Red_Gradient_1);}</style><linearGradient id="PU_Blue_Gradient_1" x1="102.91" y1="352.78" x2="169.43" y2="286.26" gradientUnits="userSpaceOnUse"><stop offset="0.4" stop-color="#0b318f"/><stop offset="0.52" stop-color="#0a3894"/><stop offset="0.69" stop-color="#074da4"/><stop offset="0.9" stop-color="#026ebc"/><stop offset="1" stop-color="#0080c9"/></linearGradient><linearGradient id="PU_Yellow_Gradient_2" x1="130.25" y1="299.15" x2="211.6" y2="217.79" gradientUnits="userSpaceOnUse"><stop offset="0" stop-color="#fbba00"/><stop offset="0.9" stop-color="#e94e1b"/></linearGradient><linearGradient id="PU_Red_Gradient_1" x1="89.55" y1="355.78" x2="168.32" y2="277.01" gradientUnits="userSpaceOnUse"><stop offset="0" stop-color="#8a1002"/><stop offset="0.9" stop-color="#e60012"/></linearGradient></defs><path class="cls-1" d="M272.13,269.51a2,2,0,0,0-2.24-2.25H265.8v-11h11.54c4.8,0,6.53,2.14,6.53,5v2h.21s4.39-8.27,16.54-8.27c14.09,0,23.18,11.13,23.18,27.26,0,16.54-10.21,27.27-23.9,27.27-10.31,0-14.9-6.85-14.9-6.85h-.21a43.91,43.91,0,0,1,.21,4.5v21.54H272.13Zm25.43,29.1c7.14,0,13.17-5.82,13.17-16.13,0-9.91-5.31-16.34-13-16.34-6.74,0-13.07,4.9-13.07,16.44C284.69,290.65,289,298.61,297.56,298.61Zm38-29.1a2,2,0,0,0-2.24-2.25h-4.09v-11h11.85c4.59,0,6.94,1.94,6.94,6.33v3.06a24.3,24.3,0,0,1-.2,3.27h.2c2.35-7.46,8.58-13.38,16.54-13.38a16.89,16.89,0,0,1,2.35.2v12.77a22.43,22.43,0,0,0-3.16-.21,14.67,14.67,0,0,0-14.2,10.93,31.67,31.67,0,0,0-1.12,8.47v20.63H335.54ZM399,255c15.93,0,28.59,11.33,28.59,27.26S414.88,309.54,399,309.54s-28.48-11.24-28.48-27.27S383.13,255,399,255Zm0,43.5c8.48,0,15.52-6.54,15.52-16.24S407.43,266,399,266s-15.41,6.63-15.41,16.23S390.58,298.51,399,298.51Zm40.54-6.74s6.64,7.66,15.52,7.66c4,0,7.05-1.64,7.05-5.11,0-7.35-27.47-7.25-27.47-24.1,0-10.41,9.4-15.21,20.22-15.21,7.05,0,18.28,2.35,18.28,10.82v5.41H461.65v-2.55c0-2.45-3.67-3.67-6.53-3.67-4.6,0-7.76,1.63-7.76,4.69,0,8.17,27.67,6.54,27.67,23.9,0,9.8-8.68,15.93-20,15.93-14.29,0-21.64-9.3-21.64-9.3Zm47.59-22.26a2,2,0,0,0-2.25-2.25h-4.08v-11h11.54c4.79,0,6.53,2.14,6.53,5v2h.2s4.4-8.27,16.55-8.27c14.09,0,23.18,11.13,23.18,27.26,0,16.54-10.22,27.27-23.9,27.27-10.31,0-14.91-6.85-14.91-6.85h-.2s.2,1.84.2,4.5v21.54H487.08Zm25.42,29.1c7.15,0,13.18-5.82,13.18-16.13,0-9.91-5.31-16.34-13-16.34-6.74,0-13.07,4.9-13.07,16.44C499.64,290.65,503.93,298.61,512.5,298.61ZM571.73,255c14.91,0,23.08,10.93,23.08,24.71,0,1.53-.31,4.8-.31,4.8H558.56c1,9.19,7.76,14,15.62,14,8.37,0,14.6-5.82,14.6-5.82l5.41,9a31.64,31.64,0,0,1-20.93,7.87c-17.26,0-28-12.46-28-27.27C545.28,266.24,556.11,255,571.73,255Zm9.8,20.52c-.2-6.22-4.49-10.51-9.8-10.51-6.64,0-11.34,4-12.76,10.51Zm25.84-6a2,2,0,0,0-2.25-2.25H601v-11h11.84c4.6,0,6.94,1.94,6.94,6.33v3.06a24.3,24.3,0,0,1-.2,3.27h.2c2.35-7.46,8.58-13.38,16.55-13.38a16.85,16.85,0,0,1,2.34.2v12.77a22.25,22.25,0,0,0-3.16-.21,14.66,14.66,0,0,0-14.19,10.93,31.27,31.27,0,0,0-1.13,8.47v20.63H607.37Zm42.27-4.29A2,2,0,0,0,647.4,263h-4.29v-6h7.25c4.39,0,6.22,1.84,6.22,6v24.82c0,8.06,1.33,15.21,11.24,15.21,11.64,0,18.89-10.31,18.89-21.44V257h6.94V300a2,2,0,0,0,2.25,2.25h4.29v6h-7.05c-4.29,0-6.23-1.84-6.23-5.72v-2.35a32,32,0,0,1,.21-3.67h-.21a21.91,21.91,0,0,1-20,13c-12.15,0-17.26-6.54-17.26-19.92Zm59.84,30.53s5.72,7.76,15.83,7.76c5.72,0,10.82-2.76,10.82-8.17,0-11.23-28.79-9.19-28.79-25.73,0-9.29,8-13.89,18.27-13.89,5.21,0,15.63,2,15.63,9.3v4.39H734.7V267c0-3.78-5.51-5.21-8.88-5.21-7.15,0-11.44,2.45-11.44,7.45,0,11.54,28.8,8.89,28.8,25.94,0,8.58-7.76,14.4-18,14.4-13.38,0-19.71-9-19.71-9Zm-222.4,55.43h4v6.93c0,.79-.06,1.36-.06,1.36h.06a5.7,5.7,0,0,1,4.84-2.34c4.36,0,7.15,3.44,7.15,8.44S500,374,495.68,374a5.71,5.71,0,0,1-4.81-2.4h-.06a9.64,9.64,0,0,1,.06,1.1v.92h-3.79Zm7.9,19.45c2.22,0,4-1.81,4-5s-1.64-5.06-4-5.06c-2.08,0-4,1.52-4,5.09C491,368.16,492.29,370.63,495,370.63Zm10.57,5.59a3.47,3.47,0,0,0,1.8.67,3,3,0,0,0,2.78-2.09l.6-1.42-6.79-15.87h4.52l3.38,9.29a18.71,18.71,0,0,1,.6,2.18h.06s.26-1.26.54-2.12l3.16-9.35h4.4l-7.21,18.56a6,6,0,0,1-5.82,4.2,6.2,6.2,0,0,1-3.35-1Zm78.07-28.62s-3.16-8.17-15.76-7.28a32,32,0,0,0-7.94,1.69c-17.27,5.48-37.32,30-20.56,40.94,0,0,6.17,3.94,15.16.18s11.89-15.42,8.61-18c-3-2.32-6.64.28-10.39.46-2,.1-7.49-.18-3.18-8.8,3.37-6.74,13.36-14.46,25-14,6.93.27,9.1,4.8,9.1,4.8m-28.73,37.17s22.29-4.75,29.32-23.84a27.09,27.09,0,0,0,.94-3.34c1.16-5.52-1-14.6-11.78-13-11.72,1.75-17.17,10.48-17.07,14.16.1,4,3.22,3.69,6.66,2.94,5-1.09,9.38,1.95,8.16,7.92s-8.53,12.23-16.23,15.16m53-20.25a6.76,6.76,0,0,1-1.49,3.22,4.6,4.6,0,0,1-6.27-.26Q599,366.1,599,362.41a7.87,7.87,0,0,1,1-4.39,4.16,4.16,0,0,1,3.66-1.88,4.29,4.29,0,0,1,1.91.43,4,4,0,0,1,1.44,1.21,5.25,5.25,0,0,1,.68,1.49l6.2-1.35a10,10,0,0,0-3.65-5.22,11.67,11.67,0,0,0-6.75-1.7q-5.49,0-8.48,3t-3,8.49a12.36,12.36,0,0,0,1.7,6.8,9.61,9.61,0,0,0,4.05,3.71,15,15,0,0,0,6.06,1.05,12.68,12.68,0,0,0,5-.86,8.52,8.52,0,0,0,3.31-2.57,11.09,11.09,0,0,0,2-4.24l-6.16-1.82m25.68,1.05v2.1a12.22,12.22,0,0,1-2.45,1.13,7.24,7.24,0,0,1-2.24.34,4.92,4.92,0,0,1-3.87-1.55q-1.39-1.54-1.39-5.16,0-3.4,1.37-5a4.65,4.65,0,0,1,3.68-1.57,4.51,4.51,0,0,1,2.55.66,3.61,3.61,0,0,1,1.42,1.93l6.77-1.18a9,9,0,0,0-1.85-3.56,7.2,7.2,0,0,0-3.1-2.07,17.61,17.61,0,0,0-5.63-.67,14.83,14.83,0,0,0-6.21,1.08,9.8,9.8,0,0,0-4.5,4.09,12.6,12.6,0,0,0-1.53,6.33,13,13,0,0,0,1.4,6.14,9.3,9.3,0,0,0,4,4,14.06,14.06,0,0,0,6.59,1.35,19.07,19.07,0,0,0,5.68-.75,22.06,22.06,0,0,0,5.51-2.83v-9.49H628.91v4.63Zm9.1.7a8.55,8.55,0,0,0,2.52,5.56q2.24,2.18,8,2.18a13.93,13.93,0,0,0,5.47-.93,7.62,7.62,0,0,0,3.38-2.74,6.94,6.94,0,0,0,1.21-3.95,6.1,6.1,0,0,0-.91-3.29,6.85,6.85,0,0,0-2.9-2.47,30,30,0,0,0-6.59-2,5.77,5.77,0,0,1-2.36-.82,1.22,1.22,0,0,1-.51-.95,1.56,1.56,0,0,1,.62-1.24,2.87,2.87,0,0,1,1.85-.51,3.58,3.58,0,0,1,2.33.69A3.47,3.47,0,0,1,656,358l6.61-.38a6.8,6.8,0,0,0-2.72-5.05Q657.56,351,653.2,351a14.55,14.55,0,0,0-5.58.87,6.71,6.71,0,0,0-3.06,2.4,5.81,5.81,0,0,0-1,3.24,5.41,5.41,0,0,0,2,4.3c1.32,1.12,3.51,2,6.59,2.7a8.86,8.86,0,0,1,3.59,1.29,2,2,0,0,1,.78,1.55,2.06,2.06,0,0,1-.81,1.6,3.51,3.51,0,0,1-2.32.69,3.75,3.75,0,0,1-3.1-1.35,5,5,0,0,1-.88-2.43l-6.68.41m41.48-.44a7.22,7.22,0,0,1-2.37,4.23,6.51,6.51,0,0,1-4.28,1.43,7.49,7.49,0,0,1-3.86-1.05,6.21,6.21,0,0,1-2.62-3.16,13.41,13.41,0,0,1-.85-5,12.89,12.89,0,0,1,.72-4.27,6.43,6.43,0,0,1,2.47-3.3,7.44,7.44,0,0,1,4.37-1.23,6.21,6.21,0,0,1,3.79,1.11,6.83,6.83,0,0,1,2.29,3.53l3-.68a8.82,8.82,0,0,0-3.24-4.78,9.4,9.4,0,0,0-5.73-1.7,11.52,11.52,0,0,0-5.51,1.34,9.21,9.21,0,0,0-3.86,3.93,13,13,0,0,0-1.36,6.07,14.86,14.86,0,0,0,1.2,6,9.27,9.27,0,0,0,3.51,4.25,11,11,0,0,0,6,1.46,9.51,9.51,0,0,0,6-1.9,9.93,9.93,0,0,0,3.4-5.54l-3-.74m7.22,7.8h3V351.38h-3Zm11.11,0V354.69l6.57,18.94h2.72L718.4,355v18.62h2.9V351.38h-4l-5.44,15.48c-.55,1.57-.95,2.76-1.21,3.57-.22-.73-.59-1.83-1.08-3.3l-5.38-15.75h-4.52v22.25Zm23.51,0V351.38h8.52a10.77,10.77,0,0,1,4.18.67,5.54,5.54,0,0,1,3.36,5,5,5,0,0,1-.79,2.69,5.61,5.61,0,0,1-2.39,2,6,6,0,0,1,3.17,2,5.32,5.32,0,0,1,1.11,3.37,6.42,6.42,0,0,1-.68,2.91,5.73,5.73,0,0,1-1.66,2.07,7.14,7.14,0,0,1-2.49,1.1,15.37,15.37,0,0,1-3.67.37Zm3-12.9h4.91a11.31,11.31,0,0,0,2.87-.26,2.94,2.94,0,0,0,2.31-3.05,3.45,3.45,0,0,0-.55-1.95,2.68,2.68,0,0,0-1.55-1.15,13,13,0,0,0-3.45-.32H729ZM729,371h5.65a13.6,13.6,0,0,0,2.05-.1,5.09,5.09,0,0,0,1.74-.61,3.2,3.2,0,0,0,1.14-1.24,3.78,3.78,0,0,0,.45-1.87,3.66,3.66,0,0,0-.65-2.16,3.32,3.32,0,0,0-1.8-1.29,11.33,11.33,0,0,0-3.33-.38H729Z" transform="translate(-99.71 -208.09)"/><path class="cls-2" d="M173.25,317.79a2.74,2.74,0,0,0-2.77,2.73v10.07a20.78,20.78,0,0,1-20.78,20.78h0a25,25,0,0,1-24.94-24.95V256.24H116.5A16.79,16.79,0,0,0,99.71,273v59.56a41.05,41.05,0,0,0,41.05,41.05H155a41.05,41.05,0,0,0,41-41.05V312.85a54.63,54.63,0,0,1-22.73,4.94Z" transform="translate(-99.71 -208.09)"/><path class="cls-3" d="M228.12,262.94a54.85,54.85,0,0,0-54.84-54.85c-.94,0-1.88,0-2.8.07v-.07H145.53a20.77,20.77,0,0,0-20.77,20.78v27.37h54.47A16.78,16.78,0,0,1,196,273v39.83A54.84,54.84,0,0,0,228.12,262.94Z" transform="translate(-99.71 -208.09)"/><path class="cls-4" d="M179.23,256.24H124.76v70.18a25,25,0,0,0,24.94,24.95h0a20.78,20.78,0,0,0,20.78-20.78V320.52a2.74,2.74,0,0,1,2.77-2.73h0A54.63,54.63,0,0,0,196,312.85V273A16.78,16.78,0,0,0,179.23,256.24Z" transform="translate(-99.71 -208.09)"/></svg>