<svg width="285" height="64" viewBox="0 0 285 64" fill="none" xmlns="http://www.w3.org/2000/svg">
<path d="M43.9262 0.0967888C40.9355 0.323739 38.2725 0.9592 33.8889 2.50246C12.0936 10.3096 -13.184 45.3507 7.95579 60.9195C7.95579 60.9195 15.7398 66.5478 27.0881 61.1918C38.4364 55.8358 42.0826 39.1776 37.9448 35.501C34.2166 32.1876 29.5462 35.9096 24.8348 36.1365C22.3767 36.2727 15.3711 35.8642 20.8199 23.5635C25.0806 13.9408 37.658 2.91097 52.3247 3.59182C61.051 4.00033 63.7959 10.4911 63.7959 10.4911C63.7959 10.4911 59.822 -1.17413 43.9262 0.0967888Z" fill="#E60012"/>
<path d="M27.5388 63.5065C27.5388 63.5065 55.6842 56.698 64.5334 29.464C64.9841 28.0569 65.4347 26.1959 65.7215 24.698C67.1964 16.8455 64.4515 3.86397 50.8499 6.13348C36.0603 8.62993 29.1776 21.0668 29.3005 26.3321C29.4234 32.0966 33.3564 31.5973 37.699 30.5079C43.9672 28.9647 49.539 33.2767 47.9822 41.8101C46.5073 50.3888 37.2484 59.3306 27.5388 63.5065" fill="#0B318F"/>
<path d="M98.5872 32.9775L106.977 35.5601C106.4 37.9615 105.512 40.0004 104.313 41.5862C103.115 43.2173 101.606 44.4406 99.7857 45.2562C97.9658 46.0718 95.702 46.4796 92.9055 46.4796C89.532 46.4796 86.78 45.9812 84.6494 44.9844C82.5187 43.9876 80.6544 42.2205 79.1009 39.6832C77.5473 37.1459 76.7483 33.9289 76.7483 29.9871C76.7483 24.7312 78.1243 20.6987 80.832 17.8895C83.5841 15.0804 87.4458 13.6758 92.4173 13.6758C96.3234 13.6758 99.3862 14.4913 101.65 16.0772C103.869 17.7083 105.556 20.155 106.621 23.5079L98.1433 25.4108C97.8326 24.4593 97.5219 23.7344 97.2112 23.2813C96.6785 22.5111 96.0127 21.9673 95.2581 21.5596C94.4591 21.1518 93.6158 20.9705 92.6392 20.9705C90.4642 20.9705 88.7775 21.8767 87.6234 23.6438C86.7356 24.9577 86.2917 27.042 86.2917 29.8964C86.2917 33.4305 86.8244 35.8319 87.8453 37.1006C88.9106 38.4145 90.3754 39.0489 92.2397 39.0489C94.0596 39.0489 95.48 38.5052 96.4122 37.463C97.4775 36.5116 98.1433 34.9711 98.5872 32.9775Z" fill="#231F20"/>
<path d="M127.262 34.4703V27.8552H142.088V41.3573C139.247 43.3509 136.717 44.6648 134.542 45.3898C132.367 46.1147 129.792 46.4772 126.774 46.4772C123.089 46.4772 120.071 45.8429 117.763 44.5742C115.455 43.3056 113.635 41.4026 112.348 38.8653C111.06 36.328 110.439 33.4282 110.439 30.1206C110.439 26.6771 111.149 23.6414 112.525 21.1041C113.945 18.5668 115.987 16.6185 118.651 15.2593C120.737 14.2171 123.578 13.7188 127.129 13.7188C130.547 13.7188 133.121 14.0359 134.852 14.6702C136.539 15.3046 137.959 16.3014 139.069 17.6153C140.179 18.9293 141.022 20.651 141.599 22.6899L132.411 24.3664C132.011 23.1883 131.39 22.2369 130.458 21.6025C129.526 20.9682 128.372 20.651 126.951 20.651C124.865 20.651 123.178 21.376 121.935 22.8712C120.692 24.3664 120.071 26.7225 120.071 29.9394C120.071 33.3829 120.692 35.8296 121.98 37.2795C123.223 38.7294 124.998 39.4996 127.262 39.4996C128.327 39.4996 129.348 39.3637 130.325 39.0012C131.301 38.6841 132.411 38.1403 133.654 37.3701V34.3797H127.262V34.4703Z" fill="#231F20"/>
<path d="M146.127 35.4226L155.271 34.8335C155.448 36.3287 155.892 37.5068 156.469 38.277C157.446 39.5457 158.866 40.18 160.686 40.18C162.062 40.18 163.128 39.8629 163.838 39.1832C164.592 38.5489 164.947 37.7786 164.947 36.9178C164.947 36.1022 164.592 35.3773 163.882 34.6976C163.172 34.0633 161.53 33.429 158.955 32.8399C154.738 31.8885 151.764 30.5745 149.944 28.9887C148.124 27.4029 147.237 25.364 147.237 22.872C147.237 21.2408 147.681 19.7003 148.613 18.2504C149.545 16.8005 150.921 15.6678 152.785 14.8523C154.649 14.0367 157.18 13.6289 160.42 13.6289C164.37 13.6289 167.433 14.3992 169.519 15.8944C171.606 17.3896 172.849 19.7909 173.248 23.0985L164.193 23.6422C163.971 22.1923 163.438 21.1955 162.684 20.5159C161.929 19.8816 160.864 19.5644 159.488 19.5644C158.378 19.5644 157.535 19.7909 156.958 20.2893C156.381 20.7877 156.114 21.3768 156.114 22.0564C156.114 22.5548 156.336 23.0079 156.824 23.4157C157.268 23.8234 158.334 24.2312 160.065 24.5937C164.282 25.4999 167.256 26.4514 169.076 27.4029C170.896 28.3544 172.227 29.5324 173.026 30.937C173.87 32.3415 174.269 33.8821 174.269 35.6491C174.269 37.688 173.736 39.5457 172.627 41.2674C171.517 42.9892 169.963 44.3031 168.01 45.164C166.013 46.0702 163.527 46.478 160.553 46.478C155.271 46.478 151.631 45.4359 149.589 43.3517C147.547 41.2674 146.393 38.6395 146.127 35.4226Z" fill="#231F20"/>
<path d="M202.81 34.8351L206.938 35.8772C206.095 39.3207 204.542 41.9487 202.278 43.761C200.058 45.5734 197.306 46.4796 194.066 46.4796C190.737 46.4796 187.985 45.7999 185.899 44.3953C183.812 42.9908 182.214 40.9972 181.105 38.3692C179.995 35.7413 179.462 32.8868 179.462 29.8511C179.462 26.5436 180.084 23.6891 181.327 21.1971C182.569 18.7504 184.301 16.8927 186.609 15.5788C188.873 14.3101 191.403 13.6758 194.155 13.6758C197.262 13.6758 199.881 14.4913 202.011 16.0772C204.142 17.7083 205.607 19.9737 206.45 22.8735L202.411 23.825C201.701 21.5143 200.635 19.8378 199.259 18.7957C197.883 17.7536 196.152 17.2099 194.11 17.2099C191.713 17.2099 189.716 17.7989 188.118 18.9769C186.52 20.155 185.366 21.6955 184.744 23.6891C184.079 25.6374 183.768 27.6763 183.768 29.7605C183.768 32.4791 184.167 34.7898 184.922 36.8287C185.677 38.8223 186.875 40.3628 188.517 41.3596C190.16 42.3564 191.891 42.8548 193.8 42.8548C196.108 42.8548 198.061 42.1752 199.659 40.8159C201.168 39.502 202.278 37.5084 202.81 34.8351Z" fill="#231F20"/>
<path d="M212.709 45.9351V14.2188H216.837V45.9351H212.709Z" fill="#231F20"/>
<path d="M223.939 45.9351V14.2188H230.109L237.477 36.6467C238.143 38.731 238.631 40.3168 238.942 41.3589C239.297 40.2262 239.83 38.5044 240.585 36.2843L248.042 14.2188H253.59V45.9351H249.64V19.384L240.629 45.9351H236.9L227.89 18.9309V45.9351H223.939Z" fill="#231F20"/>
<path fill-rule="evenodd" clip-rule="evenodd" d="M260.027 45.8445V14.2188H271.701C274.053 14.2188 275.962 14.5359 277.427 15.1702C278.847 15.8046 280.001 16.8014 280.8 18.1153C281.599 19.4293 281.999 20.8339 281.999 22.2838C281.999 23.643 281.643 24.9117 280.933 26.0897C280.223 27.2678 279.113 28.2646 277.649 28.9895C279.513 29.5332 280.978 30.53 281.999 31.844C283.02 33.2033 283.508 34.7891 283.508 36.6467C283.508 38.1419 283.197 39.5012 282.576 40.7699C281.954 42.0385 281.2 43.0353 280.312 43.715C279.424 44.3946 278.27 44.9383 276.894 45.3008C275.518 45.6633 273.876 45.8445 271.878 45.8445H260.027ZM264.155 27.5396H270.857C272.677 27.5396 273.964 27.4036 274.763 27.1771C275.829 26.8599 276.583 26.3162 277.116 25.5913C277.649 24.8663 277.915 23.9148 277.915 22.8274C277.915 21.7853 277.649 20.8338 277.16 20.0636C276.672 19.248 275.962 18.7043 275.03 18.4324C274.098 18.1153 272.544 17.9793 270.325 17.9793H264.11V27.5396H264.155ZM271.878 42.1745H264.155V31.255H271.301C273.254 31.255 274.763 31.4363 275.829 31.7987C276.894 32.1612 277.737 32.7955 278.314 33.6564C278.891 34.5173 279.202 35.5594 279.202 36.7374C279.202 37.7342 278.98 38.6404 278.581 39.4107C278.181 40.1809 277.649 40.7699 277.027 41.1777C276.406 41.5855 275.607 41.8574 274.675 42.0386C274.142 42.1292 273.21 42.1745 271.878 42.1745Z" fill="#231F20"/>
</svg>
