<?xml version="1.0" encoding="UTF-8"?>
<svg width="227px" height="51px" viewBox="0 0 227 51" version="1.1" xmlns="http://www.w3.org/2000/svg" xmlns:xlink="http://www.w3.org/1999/xlink">
    <!-- Generator: sketchtool 47.1 (45422) - http://www.bohemiancoding.com/sketch -->
    <title>A1192FC0-02B3-4D2F-844E-EC2A93D3576A</title>
    <desc>Created with sketchtool.</desc>
    <defs></defs>
    <g id="Page-1" stroke="none" stroke-width="1" fill="none" fill-rule="evenodd">
        <g id="Homepage_International-(revised)-2" transform="translate(-64.000000, -73.000000)" fill-rule="nonzero">
            <g id="Header" transform="translate(0.000000, -57.000000)">
                <g id="Top-Header-with-logo" transform="translate(0.000000, 110.000000)">
                    <g id="CGSCIMB_LOGO_RGB" transform="translate(64.000000, 20.000000)">
                        <g id="Group">
                            <path d="M35.1279666,0.325531915 C32.7447495,0.506382979 30.6227069,1.01276596 27.1294983,2.24255319 C9.76139591,8.46382979 -10.3816853,36.387234 6.4640682,48.793617 C6.4640682,48.793617 12.6669619,53.2787234 21.710128,49.0106383 C30.7532941,44.7425532 33.6588601,31.4680851 30.3615324,28.5382979 C27.3906728,25.8978723 23.6689366,28.8638298 19.9145535,29.0446809 C17.955745,29.1531915 12.3731406,28.8276596 16.7151662,19.0255319 C20.1104344,11.3574468 30.1330048,2.56808511 41.8205624,3.1106383 C48.7743327,3.43617021 50.961669,8.60851064 50.961669,8.60851064 C50.961669,8.60851064 47.7949285,-0.687234043 35.1279666,0.325531915 Z" id="Shape" fill="#E60012"></path>
                            <path d="M22.0692429,50.8553191 C22.0692429,50.8553191 44.4976008,45.4297872 51.5493115,23.7276596 C51.9084264,22.606383 52.2675413,21.1234043 52.496069,19.9297872 C53.6713541,13.6723404 51.4840179,3.32765957 40.6452773,5.13617021 C28.8597792,7.12553191 23.3751153,17.0361702 23.4730557,21.2319149 C23.5709961,25.8255319 26.7050898,25.4276596 30.1656516,24.5595745 C35.1606134,23.3297872 39.6005794,26.7659574 38.3600007,33.5659574 C37.1847155,40.4021277 29.8065367,47.5276596 22.0692429,50.8553191" id="Shape" fill="#0B318F"></path>
                        </g>
                        <g id="Group" transform="translate(61.000000, 11.000000)" fill="#231F20">
                            <g id="Shape">
                                <path d="M17.6858589,15.5254403 L24.3711136,17.5834638 C23.9112813,19.4970646 23.2038469,21.12182 22.2488105,22.3855186 C21.2937741,23.6853229 20.0911357,24.6601761 18.6408953,25.3100783 C17.1906549,25.9599804 15.3866973,26.2849315 13.158279,26.2849315 C10.4700285,26.2849315 8.27698198,25.8877691 6.57913952,25.0934442 C4.88129706,24.2991194 3.39568491,22.890998 2.15767479,20.8690802 C0.919664664,18.8471624 0.282973743,16.2836595 0.282973743,13.1424658 C0.282973743,8.95420744 1.379497,5.74080235 3.53717179,3.50225049 C5.73021829,1.26369863 8.80755775,0.144422701 12.7691901,0.144422701 C15.8819013,0.144422701 18.3225498,0.794324853 20.1265075,2.05802348 C21.8950934,3.35782779 23.2392186,5.30753425 24.0881399,7.97935421 L17.3321417,9.49579256 C17.0845397,8.73757339 16.8369377,8.15988258 16.5893357,7.79882583 C16.1648751,7.18502935 15.6342993,6.75176125 15.0329801,6.42681018 C14.3962892,6.1018591 13.7242265,5.9574364 12.9460487,5.9574364 C11.2128346,5.9574364 9.86870928,6.6795499 8.94904462,8.08767123 C8.24161026,9.13473581 7.88789308,10.7955969 7.88789308,13.0702544 C7.88789308,15.8864971 8.3123537,17.8000978 9.12590321,18.8110568 C9.97482444,19.8581213 11.1420911,20.3636008 12.6277033,20.3636008 C14.0779437,20.3636008 15.2098387,19.9303327 15.9526448,19.0999022 C16.801566,18.341683 17.3321417,17.11409 17.6858589,15.5254403 Z"></path>
                                <path d="M40.5359887,16.7169276 L40.5359887,11.445499 L52.3501424,11.445499 L52.3501424,22.2049902 C50.0863525,23.7936399 48.0701646,24.8407045 46.3369504,25.4183953 C44.6037362,25.9960861 42.5521766,26.2849315 40.1468998,26.2849315 C37.2110472,26.2849315 34.8057704,25.7794521 32.966441,24.7684932 C31.1271117,23.7575342 29.6768713,22.2410959 28.6510915,20.2191781 C27.6253116,18.1972603 27.1301076,15.8864971 27.1301076,13.2507828 C27.1301076,10.5067515 27.6960551,8.08767123 28.7925783,6.06575342 C29.9244733,4.04383562 31.5515723,2.49129159 33.6738754,1.40812133 C35.3363461,0.577690802 37.6001361,0.180528376 40.4298735,0.180528376 C43.1534958,0.180528376 45.2050554,0.433268102 46.5845524,0.938747554 C47.9286777,1.44422701 49.0605727,2.23855186 49.9448656,3.28561644 C50.8291586,4.33268102 51.5012212,5.70469667 51.9610535,7.32945205 L44.6391079,8.66536204 C44.3207625,7.72661448 43.8255584,6.9683953 43.0827523,6.46291585 C42.3399463,5.9574364 41.4202816,5.70469667 40.2883866,5.70469667 C38.6259159,5.70469667 37.2817906,6.28238748 36.2913825,7.47387476 C35.3009744,8.66536204 34.8057704,10.5428571 34.8057704,13.1063601 C34.8057704,15.8503914 35.3009744,17.8000978 36.3267542,18.9554795 C37.3171623,20.1108611 38.7320311,20.7246575 40.5359887,20.7246575 C41.3849099,20.7246575 42.1984594,20.6163405 42.9766372,20.3274951 C43.754815,20.0747554 44.6391079,19.6414873 45.629516,19.0276908 L45.629516,16.6447162 L40.5359887,16.6447162 L40.5359887,16.7169276 Z"></path>
                                <path d="M55.5689688,17.4751468 L62.8555426,17.005773 C62.9970295,18.1972603 63.3507467,19.1360078 63.810579,19.7498043 C64.5887568,20.7607632 65.7206518,21.2662427 67.1708922,21.2662427 C68.2674155,21.2662427 69.1163367,21.0135029 69.6822842,20.4719178 C70.2836034,19.9664384 70.5665771,19.3526419 70.5665771,18.6666341 C70.5665771,18.0167319 70.2836034,17.4390411 69.7176559,16.897456 C69.1517084,16.3919765 67.8429548,15.8864971 65.7913952,15.4171233 C62.431082,14.6589041 60.0611769,13.6118395 58.6109365,12.3481409 C57.1606961,11.0844423 56.4532617,9.45968689 56.4532617,7.47387476 C56.4532617,6.17407045 56.8069789,4.9464775 57.549785,3.79109589 C58.292591,2.63571429 59.3891143,1.73307241 60.8747264,1.08317025 C62.3603386,0.433268102 64.3765265,0.108317025 66.9586619,0.108317025 C70.1067448,0.108317025 72.5473933,0.722113503 74.2098641,1.91360078 C75.8723348,3.10508806 76.8627429,5.01868885 77.1810884,7.65440313 L69.9652579,8.08767123 C69.7883993,6.93228963 69.3639387,6.13796477 68.7626195,5.59637965 C68.1613003,5.0909002 67.3123791,4.83816047 66.2158558,4.83816047 C65.3315629,4.83816047 64.6595002,5.01868885 64.1996679,5.41585127 C63.7398356,5.8130137 63.5276053,6.28238748 63.5276053,6.8239726 C63.5276053,7.22113503 63.7044639,7.58219178 64.0935528,7.90714286 C64.4472699,8.23209393 65.2961912,8.55704501 66.6756882,8.84589041 C70.0360014,9.56800391 72.4059065,10.3262231 73.8561469,11.0844423 C75.3063873,11.8426614 76.3675389,12.781409 77.0042298,13.9006849 C77.6762924,15.0199609 77.9946379,16.2475538 77.9946379,17.6556751 C77.9946379,19.2804305 77.5701773,20.7607632 76.6858843,22.1327789 C75.8015914,23.5047945 74.5635812,24.5518591 73.0072257,25.2378669 C71.4154984,25.9599804 69.4346822,26.2849315 67.0647771,26.2849315 C62.8555426,26.2849315 59.9550618,25.454501 58.3279627,23.7936399 C56.7008637,22.1327789 55.7811991,20.0386497 55.5689688,17.4751468 Z"></path>
                            </g>
                            <g transform="translate(82.062385, 0.000000)" id="Shape">
                                <path d="M18.676267,17.005773 L21.9658368,17.8362035 C21.2937741,20.5802348 20.055764,22.674364 18.2518064,24.118591 C16.4832205,25.562818 14.290174,26.2849315 11.7080386,26.2849315 C9.05515977,26.2849315 6.86211326,25.7433464 5.19964252,24.6240705 C3.53717179,23.5047945 2.26378994,21.9161448 1.379497,19.8220157 C0.49520405,17.7278865 0.0707434357,15.453229 0.0707434357,13.0341487 C0.0707434357,10.3984344 0.565947486,8.12377691 1.55635559,6.13796477 C2.54676369,4.18825832 3.92626068,2.70792564 5.76559001,1.66086106 C7.56954762,0.649902153 9.58573554,0.144422701 11.778782,0.144422701 C14.2548023,0.144422701 16.3417336,0.794324853 18.0395761,2.05802348 C19.7374186,3.35782779 20.9046853,5.16311155 21.5767479,7.47387476 L18.3579216,8.23209393 C17.7919741,6.3907045 16.9430529,5.05479452 15.8465296,4.22436399 C14.7500063,3.39393346 13.3705093,2.96066536 11.7434103,2.96066536 C9.83333756,2.96066536 8.24161026,3.43003914 6.96822842,4.36878669 C5.69484657,5.30753425 4.77518191,6.5351272 4.27997786,8.12377691 C3.74940209,9.67632094 3.50180007,11.3010763 3.50180007,12.9619374 C3.50180007,15.1282779 3.82014553,16.9696673 4.42146473,18.5944227 C5.02278394,20.1830724 5.97782032,21.4106654 7.28657388,22.2049902 C8.59532744,22.9993151 9.97482444,23.3964775 11.4958083,23.3964775 C13.3351376,23.3964775 14.8914932,22.8548924 16.1648751,21.7717221 C17.3675135,20.7246575 18.2518064,19.1360078 18.676267,17.005773 Z"></path>
                                <polygon points="26.5641601 25.8516634 26.5641601 0.577690802 29.8537299 0.577690802 29.8537299 25.8516634"></polygon>
                                <path d="M35.5132047,25.8516634 L35.5132047,0.577690802 L40.4298735,0.577690802 L46.3015787,18.45 C46.8321544,20.1108611 47.2212433,21.3745597 47.4688454,22.2049902 C47.7518191,21.3023483 48.1762797,19.9303327 48.7775989,18.1611546 L54.7200475,0.577690802 L59.1415123,0.577690802 L59.1415123,25.8516634 L55.9934294,25.8516634 L55.9934294,4.69373777 L48.8129706,25.8516634 L45.8417463,25.8516634 L38.6612876,4.33268102 L38.6612876,25.8516634 L35.5132047,25.8516634 Z"></path>
                                <path d="M64.2704113,25.8516634 L64.2704113,0.577690802 L73.5731731,0.577690802 C75.4478742,0.577690802 76.9688581,0.830430528 78.1361247,1.33590998 C79.2680197,1.84138943 80.1876844,2.63571429 80.8243753,3.68277886 C81.4610662,4.72984344 81.7794117,5.84911937 81.7794117,7.00450098 C81.7794117,8.08767123 81.4964379,9.09863014 80.9304905,10.0373777 C80.364543,10.9761252 79.48025,11.7704501 78.3129833,12.3481409 C79.7985955,12.781409 80.9658622,13.5757339 81.7794117,14.6227984 C82.5929612,15.7059687 82.9820501,16.9696673 82.9820501,18.45 C82.9820501,19.6414873 82.7344481,20.7246575 82.239244,21.7356164 C81.74404,22.7465753 81.1427208,23.5409002 80.4352864,24.0824853 C79.727852,24.6240705 78.8081874,25.0573386 77.7116641,25.346184 C76.6151409,25.6350294 75.3063873,25.7794521 73.71466,25.7794521 L64.2704113,25.7794521 L64.2704113,25.8516634 Z M67.5599811,11.1927593 L72.9011105,11.1927593 C74.3513509,11.1927593 75.3771308,11.0844423 76.0138217,10.9039139 C76.8627429,10.6511742 77.4640621,10.2179061 77.8885227,9.64021526 C78.3129833,9.06252446 78.5252136,8.30430528 78.5252136,7.43776908 C78.5252136,6.60733855 78.3129833,5.84911937 77.9238944,5.2353229 C77.5348055,4.58542074 76.9688581,4.15215264 76.226052,3.93551859 C75.4832459,3.68277886 74.2452358,3.57446184 72.4766499,3.57446184 L67.5246094,3.57446184 L67.5246094,11.1927593 L67.5599811,11.1927593 Z M67.5599811,22.8548924 L73.71466,22.8548924 C74.7758115,22.8548924 75.5186176,22.8187867 75.9430782,22.7465753 C76.6858843,22.6021526 77.3225752,22.3855186 77.8177793,22.0605675 C78.3129833,21.7356164 78.7374439,21.2662427 79.0557894,20.6524462 C79.3741349,20.0386497 79.5509935,19.3165362 79.5509935,18.5222114 C79.5509935,17.5834638 79.3033914,16.7530333 78.8435591,16.0670254 C78.3837268,15.3810176 77.7116641,14.8755382 76.8627429,14.5866928 C76.0138217,14.2978474 74.8111833,14.1534247 73.2548277,14.1534247 L67.5599811,14.1534247 L67.5599811,22.8548924 Z"></path>
                            </g>
                        </g>
                    </g>
                </g>
            </g>
        </g>
    </g>
</svg>